<svg width="721" height="516" viewBox="0 0 721 516" fill="none" xmlns="http://www.w3.org/2000/svg">
<path d="M470.663 122.554C473.424 122.554 475.674 120.314 475.557 117.555C474.642 95.788 467.761 74.6552 455.622 56.4876C442.555 36.9321 423.983 21.6903 402.254 12.6899C380.525 3.68947 356.615 1.33455 333.548 5.92293C310.48 10.5113 289.292 21.8369 272.661 38.4676C256.03 55.0982 244.705 76.2869 240.116 99.3543C235.528 122.422 237.883 146.332 246.883 168.061C255.884 189.79 271.125 208.362 290.681 221.428C308.849 233.567 329.981 240.448 351.748 241.364C354.507 241.48 356.747 239.231 356.747 236.469V127.554C356.747 124.792 358.986 122.554 361.747 122.554H470.663Z" fill="#5A3DCC"/>
<path d="M702.414 440.728C705.079 440.005 707.851 441.578 708.31 444.301C709.709 452.588 709.05 461.119 706.356 469.134C703.129 478.733 697.129 487.16 689.113 493.349C681.097 499.538 671.426 503.212 661.322 503.904C651.219 504.597 641.137 502.278 632.351 497.241C623.565 492.203 616.471 484.674 611.965 475.605C607.458 466.535 605.743 456.333 607.034 446.289C608.326 436.244 612.567 426.808 619.222 419.174C624.778 412.801 631.807 407.922 639.665 404.943C642.247 403.964 645.005 405.561 645.728 408.226L656.511 447.994C657.234 450.659 659.981 452.234 662.646 451.511L702.414 440.728Z" fill="#5685FF" fill-opacity="0.98"/>
<path d="M242.831 360.385C240.07 360.385 237.82 362.624 237.937 365.383C238.522 379.293 241.546 393.005 246.883 405.892C252.859 420.319 261.619 433.428 272.661 444.471C283.703 455.513 296.812 464.272 311.24 470.248C325.667 476.224 341.131 479.3 356.747 479.3C372.363 479.3 387.826 476.224 402.254 470.248C416.682 464.272 429.791 455.513 440.833 444.471C451.875 433.428 460.635 420.319 466.611 405.892C471.948 393.005 474.972 379.293 475.557 365.383C475.674 362.624 473.424 360.385 470.663 360.385H458.811C456.049 360.385 453.824 362.625 453.682 365.383C453.113 376.421 450.662 387.295 446.422 397.529C441.544 409.306 434.395 420.006 425.382 429.019C416.368 438.032 405.668 445.182 393.892 450.06C382.115 454.938 369.494 457.449 356.747 457.449C344 457.449 331.379 454.938 319.602 450.06C307.826 445.182 297.126 438.032 288.112 429.019C279.099 420.006 271.95 409.306 267.072 397.529C262.832 387.295 260.381 376.421 259.812 365.383C259.67 362.625 257.445 360.385 254.683 360.385H242.831Z" fill="#DE3939"/>
<path d="M113.916 122.554C116.677 122.554 118.927 120.314 118.81 117.555C118.225 103.645 115.201 89.9327 109.864 77.0465C103.888 62.619 95.1283 49.5099 84.086 38.4676C73.0437 27.4252 59.9345 18.666 45.507 12.6899C32.6208 7.35228 18.9084 4.3283 4.99864 3.7431C2.23966 3.62703 1.61122e-07 5.87658 3.59877e-07 8.638L8.19912e-06 117.554C8.39787e-06 120.315 2.23858 122.554 5.00001 122.554H113.916Z" fill="#5A3DCC"/>
<path d="M113.916 122.554C116.677 122.554 118.927 120.314 118.81 117.555C118.225 103.645 115.201 89.9327 109.864 77.0465C103.888 62.619 95.1283 49.5099 84.086 38.4676C73.0437 27.4252 59.9345 18.666 45.507 12.6899C32.6208 7.35228 18.9084 4.3283 4.99864 3.7431C2.23966 3.62703 1.61122e-07 5.87658 3.59877e-07 8.638L8.19912e-06 117.554C8.39787e-06 120.315 2.23858 122.554 5.00001 122.554H113.916Z" fill="#5A3DCC"/>
<path d="M708.494 122.554C711.255 122.554 713.505 120.314 713.389 117.555C712.804 103.645 709.78 89.9327 704.442 77.0465C698.466 62.619 689.707 49.5099 678.664 38.4676C667.622 27.4252 654.513 18.666 640.085 12.6899C627.199 7.35228 613.487 4.3283 599.577 3.7431C596.818 3.62703 594.578 5.87658 594.578 8.638L594.578 117.554C594.578 120.315 596.817 122.554 599.578 122.554H708.494Z" fill="#DE3939"/>
<path d="M120.506 -7.62939e-06C117.745 -7.62939e-06 115.495 2.23965 115.611 4.99863C116.197 18.9083 119.221 32.6208 124.558 45.507C130.534 59.9345 139.294 73.0437 150.336 84.086C161.378 95.1283 174.487 103.888 188.915 109.864C201.801 115.201 215.514 118.225 229.423 118.81C232.182 118.927 234.422 116.677 234.422 113.916L234.422 4.99999C234.422 2.23857 232.183 -7.62939e-06 229.422 -7.62939e-06L120.506 -7.62939e-06Z" fill="#DE3939"/>
<path d="M476.784 399.04C476.784 396.279 479.023 394.04 481.784 394.04H590.7C593.461 394.04 595.7 396.279 595.7 399.04V507.956C595.7 510.717 593.461 512.956 590.7 512.956H481.784C479.023 512.956 476.784 510.717 476.784 507.956V399.04Z" fill="#FFD600"/>
<path d="M286.524 53.4236C283.714 50.1865 286.014 45.1462 290.3 45.1462H312.932H351.747C354.508 45.1462 356.747 47.3848 356.747 50.1462V117.554C356.747 120.315 354.508 122.554 351.747 122.554H290.3C286.014 122.554 283.714 117.513 286.524 114.276L310.087 87.1273C311.719 85.2471 311.719 82.4527 310.087 80.5725L286.524 53.4236Z" fill="#6E29FF"/>
<path d="M594.578 246.469C594.578 243.708 596.817 241.469 599.578 241.469H654.036H701.423C705.877 241.469 708.108 246.855 704.958 250.005L603.114 351.849C599.964 354.999 594.578 352.768 594.578 348.314V246.469Z" fill="#FBDC3B"/>
<path d="M0 399.04C0 396.279 2.23858 394.04 5 394.04H59.4578L106.844 394.04C111.299 394.04 113.53 399.426 110.38 402.576L8.53554 504.42C5.38571 507.57 0 505.339 0 500.884L0 399.04Z" fill="#2DE08A"/>
<path d="M594.578 233.104C594.578 235.865 592.34 238.104 589.578 238.104L535.12 238.104H487.734C483.279 238.104 481.048 232.718 484.198 229.568L586.043 127.724C589.193 124.574 594.578 126.805 594.578 131.259V233.104Z" fill="#2DE08A"/>
<path d="M0 138.696C0 135.934 2.23858 133.696 5 133.696H113.916C116.677 133.696 118.916 135.934 118.916 138.696V247.611C118.916 250.373 116.677 252.611 113.916 252.611H5C2.23858 252.611 0 250.373 0 247.611V138.696Z" fill="#FFD600"/>
<path d="M118.916 399.04C118.916 396.279 121.155 394.04 123.916 394.04H232.832C235.593 394.04 237.832 396.279 237.832 399.04V507.956C237.832 510.717 235.593 512.956 232.832 512.956H123.916C121.155 512.956 118.916 510.717 118.916 507.956V399.04Z" fill="#FFD600"/>
<path d="M178.374 458.498C178.374 455.736 180.612 453.498 183.374 453.498H232.831C235.593 453.498 237.831 455.736 237.831 458.498V507.956C237.831 510.717 235.593 512.956 232.831 512.956H183.374C180.612 512.956 178.374 510.717 178.374 507.956V458.498Z" fill="#F0D339"/>
<path d="M594.578 246.469C594.578 243.708 596.817 241.469 599.578 241.469H649.036C651.797 241.469 654.036 243.708 654.036 246.469V295.927C654.036 298.688 651.797 300.927 649.036 300.927H599.578C596.817 300.927 594.578 298.688 594.578 295.927V246.469Z" fill="#F0D339"/>
<path d="M237.831 246.469C237.831 243.708 240.07 241.469 242.831 241.469H351.747C354.508 241.469 356.747 243.708 356.747 246.469V355.385C356.747 358.146 354.508 360.385 351.747 360.385H242.831C240.07 360.385 237.831 358.146 237.831 355.385V246.469Z" fill="#2AA4E8"/>
</svg>
